# AST/ASF file generated using VICON BodyLanguage
# -----------------------------------------------
:version 1.10
:name VICON
:units
  mass 1.0
  length 0.45
  angle deg
:documentation
   .ast/.asf automatically generated from VICON data using
   VICON BodyBuilder and BodyLanguage model FoxedUp or BRILLIANT.MOD
:root
   order TX TY TZ RX RY RZ
   axis XYZ
   position 0 0 0  
   orientation 0 0 0 
:bonedata
  begin
     id 1 
     name lhipjoint
     direction 0.630082 -0.636569 0.44472 
     length 2.82754 
     axis 0 0 0  XYZ
  end
  begin
     id 2 
     name lfemur
     direction 0.34202 -0.939693 0  
     length 7.26371  
     axis 0 0 20  XYZ
    dof rx ry rz
    limits (-160.0 20.0)
           (-70.0 70.0)
           (-60.0 70.0)
  end
  begin
     id 3 
     name ltibia
     direction 0.34202 -0.939693 0   
     length 7.88616   
     axis 0 0 20   XYZ
    dof rx
    limits (-10.0 170.0)
  end
  begin
     id 4 
     name lfoot
     direction 0.0603448 -0.165796 0.984312   
     length 1.77861   
     axis -90 7.62852e-016 20   XYZ
    dof rx rz
    limits (-45.0 90.0)
           (-70.0 20.0)
  end
  begin
     id 5 
     name ltoes
     direction 1.53577e-011 -4.21876e-011 1   
     length 0.902235   
     axis -90 7.62852e-016 20   XYZ
    dof rx
    limits (-90.0 20.0)
  end
  begin
     id 6 
     name rhipjoint
     direction -0.656778 -0.61817 0.431866   
     length 2.9117  
     axis 0 0 0  XYZ 
  end
  begin
     id 7 
     name rfemur
     direction -0.34202 -0.939693 0   
     length 6.81603   
     axis 0 0 -20   XYZ
    dof rx ry rz
    limits (-160.0 20.0)
           (-70.0 70.0)
           (-70.0 60.0)
  end
  begin
     id 8 
     name rtibia
     direction -0.34202 -0.939693 0   
     length 8.05997   
     axis 0 0 -20   XYZ
    dof rx
    limits (-10.0 170.0)
 end
 begin
     id 9 
     name rfoot
     direction -0.0862404 -0.236944 0.967688   
     length 1.84899  
     axis -90 -7.62852e-016 -20   XYZ
    dof rx rz
    limits (-45.0 90.0)
           (-20.0 70.0)
  end
  begin
     id 10 
     name rtoes
     direction -1.53561e-011 -4.21798e-011 1   
     length 0.931579   
     axis -90 -7.62852e-016 -20   XYZ
    dof rx
    limits (-90.0 20.0)
  end
  begin
     id 11 
     name lowerback
     direction -0.0110203 0.991769 -0.127564   
     length 2.05686   
     axis 0 0 0   XYZ
    dof rx ry rz
    limits (-20.0 45.0)
           (-30.0 30.0)
           (-30.0 30.0)
  end
  begin
     id 12 
     name upperback
     direction 0.0109719 0.99993 -0.00432479   
     length 2.06234   
     axis 0 0 0   XYZ
    dof rx ry rz
    limits (-20.0 45.0)
           (-30.0 30.0)
           (-30.0 30.0)
  end
  begin
     id 13 
     name thorax
     direction 0.0173308 0.998351 0.0547306   
     length 2.09856   
     axis 0 0 0   XYZ
    dof rx ry rz
    limits (-20.0 45.0)
           (-30.0 30.0)
           (-30.0 30.0)
  end
  begin
     id 14 
     name lowerneck
     direction -0.0311736 0.989033 0.144366   
     length 1.98151   
     axis 0 0 0   XYZ
    dof rx ry rz
    limits (-20.0 45.0)
           (-30.0 30.0)
           (-30.0 30.0)
  end
  begin
     id 15 
     name upperneck
     direction 0.0421057 0.975772 -0.214698   
     length 2.01457   
     axis 0 0 0   XYZ
    dof rx ry rz
    limits (-20.0 45.0)
           (-30.0 30.0)
           (-30.0 30.0)
  end
  begin
     id 16
     name head
     direction 0.0136911 0.995958 -0.0887718  
     length 2.03562  
     axis 0 0 0   XYZ
    dof rx ry rz
    limits (-20.0 45.0)
           (-30.0 30.0)
           (-30.0 30.0)
  end
  begin
     id 17 
     name lclavicle
     direction 0.915335 0.396201 0.0720134  
     length 4.16217  
     axis 0 0 0   XYZ
    dof ry rz
    limits (-20.0 10.0)
           (0.0 20.0)
  end
  begin
     id 18 
     name lhumerus
     direction 1 -4.48965e-011 6.383e-018   
     length 4.93042   
     axis -180 -30 -90   XYZ
    dof rx ry rz
    limits (-60.0 90.0)
           (-90.0 90.0)
           (-90.0 90.0)
  end
  begin
     id 19
     name lradius
     direction 1 -4.48972e-011 8.8689e-027   
     length 3.68177   
     axis -180 -30 -90   XYZ
    dof rx
    limits (-10.0 170.0)
  end
  begin
     id 20
     name lwrist
     direction 1 -4.48953e-011 1.17971e-026   
     length 1.84089   
     axis -7.69454e-015 90 90   XYZ
    dof ry
    limits (-180.0 0.0)
 end
  begin
     id 21 
     name lhand
     direction 1 -4.49027e-011 2.35802e-026   
     length 0.721479   
     axis -1.50533e-014 90 90   XYZ
    dof rx rz
    limits (-90.0 90.0)
           (-45.0 45.0)
  end
  begin
     id 22 
     name lfingers
     direction 1 -4.48915e-011 4.72027e-026   
     length 0.581675   
     axis -3.01059e-014 90 90   XYZ
    dof rx
    limits (0.0 90.0)
  end
  begin
     id 23
     name lthumb
     direction 0.707107 -6.34948e-011 0.707107   
     length 0.835172   
     axis -90 45 -5.12164e-014   XYZ
    dof rx rz
    limits (-45.0 45.0)
           (-45.0 45.0)
  end
  begin
     id 24 
     name rclavicle
     direction -0.882781 0.469197 0.0234974   
     length 3.95647  
     axis 0 0 0   XYZ 
    dof ry rz
    limits (-10.0 20.0)
           (-20.0 0.0)
  end
  begin
     id 25 
     name rhumerus
     direction -1 -4.48965e-011 -1.54906e-018  
     length 5.07905   
     axis -180 30 90   XYZ
    dof rx ry rz
    limits (-90.0 60.0)
           (-90.0 90.0)
           (-90.0 90.0)
  end
  begin
     id 26 
     name rradius
     direction -1 -4.48972e-011 5.47489e-027   
     length 3.54394   
     axis -180 30 90   XYZ
    dof rx
    limits (-10.0 170.0)
  end
  begin
     id 27 
     name rwrist
     direction -1 -4.48955e-011 1.17969e-026   
     length 1.77197   
     axis -7.69454e-015 -90 -90   XYZ
    dof ry
    limits (-180.0 0.0)
  end
  begin
     id 28
     name rhand
     direction -1 -4.48982e-011 2.35888e-026   
     length 0.681156   
     axis -1.50533e-014 -90 -90   XYZ
    dof rx rz
    limits (-90.0 90.0)
           (-45.0 45.0)
  end
  begin
     id 29
     name rfingers
     direction -1 -4.48955e-011 4.71877e-026   
     length 0.549165   
     axis -3.01059e-014 -90 -90   XYZ
    dof rx
    limits (0.0 90.0)
  end
  begin
     id 30
     name rthumb
     direction -0.707107 -6.3491e-011 0.707107   
     length 0.788495   
     axis -90 -45 5.12164e-014   XYZ
    dof rx rz
    limits (-45.0 45.0)
           (-45.0 45.0)
  end
:hierarchy
  begin
    root lhipjoint rhipjoint lowerback
    lhipjoint lfemur
    lfemur ltibia
    ltibia lfoot
    lfoot ltoes
    rhipjoint rfemur
    rfemur rtibia
    rtibia rfoot
    rfoot rtoes
    lowerback upperback
    upperback thorax
    thorax lowerneck lclavicle rclavicle
    lowerneck upperneck
    upperneck head
    lclavicle lhumerus
    lhumerus lradius
    lradius lwrist
    lwrist lhand lthumb
    lhand lfingers
    rclavicle rhumerus
    rhumerus rradius
    rradius rwrist
    rwrist rhand rthumb
    rhand rfingers
  end

#!OML:ASF H:\Bending\Project 1\Capture day 1\Session 1\Subject.ASF
:FULLY-SPECIFIED
:DEGREES
251
root -9.81258 18.0079 -16.3842 -160.995 86.1592 -165.172
lowerback 6.45447 -0.746188 0.138733
upperback -3.55619 -0.762814 2.64208
thorax -7.32238 -0.289678 2.79343
lowerneck -23.9995 -4.81643 -7.77427
upperneck 33.3723 -4.61735 3.58382
head 16.2869 -2.17443 1.99785
rclavicle 1.53359e-014 -1.35174e-014
rhumerus -44.6807 24.2477 -97.3359
rradius 93.346
rwrist -0.16483
rhand -33.1488 -40.172
rfingers 7.12502
rthumb -6.3579 -70.0566
lclavicle 1.53359e-014 -1.35174e-014
lhumerus -45.2333 -34.6786 106.728
lradius 95.3452
lwrist 29.2165
lhand -51.8778 26.6892
lfingers 7.12502
lthumb -24.3904 55.1569
rfemur 4.99218 -5.18051 15.56
rtibia 1.27222e-014
rfoot -8.52018 -15.3182
rtoes 7.33409
lfemur -7.7549 -10.665 -12.3619
ltibia 22.0003
lfoot -21.3164 7.77946
ltoes -2.34288
252
root -9.81711 18.0092 -16.3855 -161.02 86.1535 -165.213
lowerback 6.42538 -0.735289 0.178404
upperback -3.57161 -0.742211 2.66215
thorax -7.32329 -0.280463 2.7893
lowerneck -23.9642 -4.76259 -7.6831
upperneck 33.482 -4.48761 3.36599
head 16.3129 -2.14006 1.91711
rclavicle 1.31384e-014 -1.90833e-014
rhumerus -43.804 24.102 -96.8355
rradius 93.5803
rwrist -0.0266646
rhand -33.2768 -40.4866
rfingers 7.12502
rthumb -6.48143 -70.3674
lclavicle 1.31384e-014 -1.90833e-014
lhumerus -44.3689 -34.7616 106.388
lradius 95.3037
lwrist 29.4083
lhand -52.182 26.9172
lfingers 7.12502
lthumb -24.682 55.3453
rfemur 4.96545 -5.18796 15.5456
rtibia 1.59028e-014
rfoot -8.63558 -15.2636
rtoes 8.23884
lfemur -7.79224 -10.6866 -12.3592
ltibia 22.0092
lfoot -21.3271 7.78782
ltoes -2.31479
253
root -9.82162 18.0101 -16.3873 -161.023 86.1819 -165.219
lowerback 6.40013 -0.708617 0.206835
upperback -3.58744 -0.701723 2.67968
thorax -7.32767 -0.26099 2.78646
lowerneck -23.9257 -4.70869 -7.59598
upperneck 33.5947 -4.36379 3.16967
head 16.3417 -2.10525 1.84529
rclavicle -1.42504e-014 2.46493e-014
rhumerus -42.9432 23.9421 -96.3199
rradius 93.8765
rwrist 0.0792468
rhand -33.3785 -40.8075
rfingers 7.12502
rthumb -6.57961 -70.6853
lclavicle -1.42504e-014 2.46493e-014
lhumerus -43.4755 -34.8846 106.04
lradius 95.278
lwrist 29.691
lhand -52.2172 26.999
lfingers 7.12502
lthumb -24.7156 55.4225
rfemur 4.9426 -5.16167 15.5262
rtibia -1.11319e-014
rfoot -8.69416 -15.2275
rtoes 8.75414
lfemur -7.80013 -10.6971 -12.3739
ltibia 22.0038
lfoot -21.3348 7.82648
ltoes -2.45041
254
root -9.82645 18.011 -16.3897 -161.114 86.2311 -165.308
lowerback 6.37913 -0.675698 0.228647
upperback -3.60709 -0.653688 2.69282
thorax -7.33889 -0.237545 2.78196
lowerneck -23.893 -4.66001 -7.52961
upperneck 33.7159 -4.25625 3.02112
head 16.38 -2.07251 1.7946
rclavicle -8.25267e-015 2.22639e-014
rhumerus -42.0992 23.7881 -95.8053
rradius 94.2127
rwrist 0.163279
rhand -33.336 -41.001
rfingers 7.12502
rthumb -6.53854 -70.8801
lclavicle -8.25267e-015 2.22639e-014
lhumerus -42.5794 -35.0431 105.687
lradius 95.2867
lwrist 30.0776
lhand -52.0686 27.0202
lfingers 7.12502
lthumb -24.5733 55.4631
rfemur 4.92049 -5.11716 15.4964
rtibia -1.59028e-015
rfoot -8.69749 -15.21
rtoes 8.8792
lfemur -7.79053 -10.7083 -12.4087
ltibia 21.9827
lfoot -21.3268 7.89589
ltoes -2.75401
255
root -9.83167 18.0116 -16.3928 -161.393 86.2819 -165.581
lowerback 6.36354 -0.644515 0.252947
upperback -3.63033 -0.608224 2.69778
thorax -7.35705 -0.215685 2.76794
lowerneck -23.8699 -4.6248 -7.49819
upperneck 33.844 -4.17934 2.94059
head 16.4299 -2.04666 1.77329
rclavicle -4.72114e-015 1.74931e-014
rhumerus -41.2649 23.6442 -95.2995
rradius 94.5715
rwrist 0.238464
rhand -33.0646 -40.9761
rfingers 7.12502
rthumb -6.27654 -70.8632
lclavicle -4.72114e-015 1.74931e-014
lhumerus -41.7006 -35.2442 105.337
lradius 95.3331
lwrist 30.5421
lhand -51.8836 27.0924
lfingers 7.12502
lthumb -24.3959 55.5593
rfemur 4.90416 -5.07449 15.4529
rtibia -1.43125e-014
rfoot -8.67042 -15.204
rtoes 8.76148
lfemur -7.77303 -10.724 -12.4617
ltibia 21.9494
lfoot -21.2922 7.9813
ltoes -3.19282
256
root -9.83705 18.0121 -16.3962 -161.898 86.3183 -166.072
lowerback 6.35433 -0.619868 0.286691
upperback -3.654 -0.571471 2.69132
thorax -7.37908 -0.198961 2.73779
lowerneck -23.8568 -4.60779 -7.50067
upperneck 33.9715 -4.14171 2.929
head 16.4881 -2.03112 1.77969
rclavicle 9.90817e-015 -4.6118e-014
rhumerus -40.4295 23.5036 -94.8039
rradius 94.9446
rwrist 0.312871
rhand -32.5536 -40.735
rfingers 7.12502
rthumb -5.78322 -70.6361
lclavicle 9.90817e-015 -4.6118e-014
lhumerus -40.8439 -35.4953 104.988
lradius 95.405
lwrist 31.0284
lhand -51.7952 27.2954
lfingers 7.12502
lthumb -24.3112 55.7737
rfemur 4.90136 -5.04899 15.3965
rtibia -6.36111e-015
rfoot -8.64724 -15.2008
rtoes 8.62337
lfemur -7.75376 -10.7368 -12.5257
ltibia 21.9125
lfoot -21.228 8.05571
ltoes -3.68767
257
root -9.84221 18.0121 -16.3994 -162.564 86.3348 -166.716
lowerback 6.35107 -0.602987 0.329152
upperback -3.67404 -0.545342 2.67333
thorax -7.4003 -0.188384 2.69192
lowerneck -23.8542 -4.60558 -7.5156
upperneck 34.0893 -4.13909 2.96287
head 16.5484 -2.02496 1.8006
rclavicle -7.26806e-016 -5.56597e-015
rhumerus -39.5829 23.3592 -94.3174
rradius 95.3301
rwrist 0.386101
rhand -31.878 -40.3718
rfingers 7.12502
rthumb -5.13093 -70.2897
lclavicle -7.26806e-016 -5.56597e-015
lhumerus -39.9955 -35.7905 104.628
lradius 95.4844
lwrist 31.4767
lhand -51.8572 27.648
lfingers 7.12502
lthumb -24.3706 56.1184
rfemur 4.91556 -5.04401 15.3331
rtibia -3.18055e-015
rfoot -8.6531 -15.1955
rtoes 8.65195
lfemur -7.73604 -10.7319 -12.5908
ltibia 21.8828
lfoot -21.1428 8.09266
ltoes -4.13394
258
root -9.84681 18.012 -16.4018 -163.244 86.3398 -167.366
lowerback 6.35192 -0.592076 0.37192
upperback -3.68814 -0.528028 2.64796
thorax -7.41715 -0.182565 2.63916
lowerneck -23.8644 -4.60723 -7.50852
upperneck 34.1919 -4.15447 3.00192
head 16.6048 -2.0227 1.81576
rclavicle 7.01958e-016 8.74653e-015
rhumerus -38.7151 23.2199 -93.8391
rradius 95.7379
rwrist 0.448213
rhand -31.1714 -40.0322
rfingers 7.12502
rthumb -4.44864 -69.9655
lclavicle 7.01958e-016 8.74653e-015
lhumerus -39.129 -36.1024 104.234
lradius 95.557
lwrist 31.852
lhand -52.0247 28.108
lfingers 7.12502
lthumb -24.5312 56.5567
rfemur 4.94149 -5.04891 15.2719
rtibia 9.54166e-015
rfoot -8.68968 -15.19
rtoes 8.90468
lfemur -7.72206 -10.6957 -12.6469
ltibia 21.8704
lfoot -21.0544 8.07902
ltoes -4.4359
259
root -9.85075 18.0119 -16.4034 -163.733 86.3513 -167.823
lowerback 6.35383 -0.58355 0.405432
upperback -3.69744 -0.515011 2.62289
thorax -7.42917 -0.178512 2.5924
lowerneck -23.8912 -4.59918 -7.44683
upperneck 34.2801 -4.1654 3.00545
head 16.6545 -2.01688 1.8062
rclavicle 4.31735e-015 -2.46493e-014
rhumerus -37.7772 23.1734 -93.3616
rradius 96.1203
rwrist 0.446854
rhand -30.6021 -39.8591
rfingers 7.12502
rthumb -3.89894 -69.8031
lclavicle 4.31735e-015 -2.46493e-014
lhumerus -38.216 -36.3845 103.781
lradius 95.6186
lwrist 32.1573
lhand -52.1897 28.5925
lfingers 7.12502
lthumb -24.6894 57.0196
rfemur 4.96528 -5.0436 15.2253
rtibia -1.59028e-015
rfoot -8.73231 -15.1917
rtoes 9.2728
lfemur -7.71479 -10.6232 -12.6851
ltibia 21.8814
lfoot -20.9826 8.02279
ltoes -4.55313
260
root -9.85423 18.0122 -16.4043 -163.818 86.3874 -167.883
lowerback 6.35391 -0.573513 0.427029
upperback -3.70615 -0.500488 2.6062
thorax -7.4394 -0.172863 2.56096
lowerneck -23.9363 -4.57204 -7.31521
upperneck 34.3598 -4.15488 2.95033
head 16.6984 -2.00189 1.76267
rclavicle 6.19338e-015 -9.54166e-015
rhumerus -36.7618 23.2589 -92.8799
rradius 96.4588
rwrist 0.366739
rhand -30.2559 -39.8833
rfingers 7.12502
rthumb -3.5646 -69.8333
lclavicle 6.19338e-015 -9.54166e-015
lhumerus -37.2384 -36.5857 103.253
lradius 95.6751
lwrist 32.4273
lhand -52.2472 29.0084
lfingers 7.12502
lthumb -24.7445 57.4279
rfemur 4.97044 -5.0081 15.2069
rtibia 4.77083e-015
rfoot -8.74068 -15.2097
rtoes 9.52934
lfemur -7.71832 -10.5214 -12.6977
ltibia 21.9185
lfoot -20.9415 7.95037
ltoes -4.52125
261
root -9.8577 18.0132 -16.4048 -163.317 86.4553 -167.371
lowerback 6.35045 -0.559473 0.445782
upperback -3.71953 -0.479582 2.60274
thorax -7.45276 -0.163375 2.5443
lowerneck -23.9955 -4.52502 -7.12246
upperneck 34.4384 -4.11918 2.84031
head 16.7394 -1.97668 1.68927
rclavicle 2.33572e-015 -1.03368e-014
rhumerus -35.7034 23.4161 -92.4009
rradius 96.7901
rwrist 0.255312
rhand -30.0721 -40.0262
rfingers 7.12502
rthumb -3.38712 -69.979
lclavicle 2.33572e-015 -1.03368e-014
lhumerus -36.1945 -36.6683 102.651
lradius 95.7353
lwrist 32.7056
lhand -52.1526 29.288
lfingers 7.12502
lthumb -24.6538 57.7199
rfemur 4.94589 -4.93345 15.2279
rtibia 6.36111e-015
rfoot -8.6788 -15.2482
rtoes 9.4407
lfemur -7.7377 -10.4064 -12.6782
ltibia 21.9815
lfoot -20.9333 7.89313
ltoes -4.44186
